<mxfile host="app.diagrams.net" modified="2023-10-31T15:28:38.668Z" agent="Mozilla/5.0 (Macintosh; Intel Mac OS X 10_15_7) AppleWebKit/537.36 (KHTML, like Gecko) Chrome/117.0.0.0 Safari/537.36" etag="dwuLsrr1BoOl5t3vKw0F" version="22.0.8" type="device">
  <diagram name="Page-1" id="Rvh86xOvkxbSx8fGR_1y">
    <mxGraphModel dx="605" dy="506" grid="1" gridSize="10" guides="1" tooltips="1" connect="1" arrows="1" fold="1" page="1" pageScale="1" pageWidth="850" pageHeight="1100" math="0" shadow="0">
      <root>
        <mxCell id="0" />
        <mxCell id="1" parent="0" />
        <mxCell id="2RYvROYNyP4gaepREElC-3" value="" style="edgeStyle=orthogonalEdgeStyle;rounded=0;orthogonalLoop=1;jettySize=auto;html=1;" edge="1" parent="1" source="2RYvROYNyP4gaepREElC-1" target="2RYvROYNyP4gaepREElC-2">
          <mxGeometry relative="1" as="geometry" />
        </mxCell>
        <mxCell id="2RYvROYNyP4gaepREElC-1" value="Main.java" style="whiteSpace=wrap;html=1;" vertex="1" parent="1">
          <mxGeometry x="365" y="30" width="120" height="60" as="geometry" />
        </mxCell>
        <mxCell id="2RYvROYNyP4gaepREElC-5" value="" style="edgeStyle=orthogonalEdgeStyle;rounded=0;orthogonalLoop=1;jettySize=auto;html=1;" edge="1" parent="1" source="2RYvROYNyP4gaepREElC-2" target="2RYvROYNyP4gaepREElC-4">
          <mxGeometry relative="1" as="geometry" />
        </mxCell>
        <mxCell id="2RYvROYNyP4gaepREElC-8" value="" style="edgeStyle=orthogonalEdgeStyle;rounded=0;orthogonalLoop=1;jettySize=auto;html=1;" edge="1" parent="1" source="2RYvROYNyP4gaepREElC-2" target="2RYvROYNyP4gaepREElC-7">
          <mxGeometry relative="1" as="geometry">
            <Array as="points">
              <mxPoint x="425" y="280" />
            </Array>
          </mxGeometry>
        </mxCell>
        <mxCell id="2RYvROYNyP4gaepREElC-2" value="TIS_Controller.java" style="whiteSpace=wrap;html=1;" vertex="1" parent="1">
          <mxGeometry x="365" y="150" width="120" height="60" as="geometry" />
        </mxCell>
        <mxCell id="2RYvROYNyP4gaepREElC-4" value="TIS.java" style="whiteSpace=wrap;html=1;" vertex="1" parent="1">
          <mxGeometry x="565" y="150" width="120" height="60" as="geometry" />
        </mxCell>
        <mxCell id="2RYvROYNyP4gaepREElC-6" value="12x" style="text;html=1;align=center;verticalAlign=middle;resizable=0;points=[];autosize=1;strokeColor=none;fillColor=none;" vertex="1" parent="1">
          <mxGeometry x="500" y="150" width="40" height="30" as="geometry" />
        </mxCell>
        <mxCell id="2RYvROYNyP4gaepREElC-7" value="UI.java" style="whiteSpace=wrap;html=1;" vertex="1" parent="1">
          <mxGeometry x="565" y="250" width="120" height="60" as="geometry" />
        </mxCell>
        <mxCell id="2RYvROYNyP4gaepREElC-11" value="" style="verticalLabelPosition=bottom;verticalAlign=top;html=1;shape=mxgraph.basic.orthogonal_triangle;fillColor=#FF0000;" vertex="1" parent="1">
          <mxGeometry x="365" y="60" width="45" height="30" as="geometry" />
        </mxCell>
      </root>
    </mxGraphModel>
  </diagram>
</mxfile>
